<?xml version="1.0" encoding="UTF-8" standalone="no"?>
<!-- Generator: Adobe Illustrator 21.1.0, SVG Export Plug-In . SVG Version: 6.00 Build 0)  -->

<svg
   xmlns:dc="http://purl.org/dc/elements/1.1/"
   xmlns:cc="http://creativecommons.org/ns#"
   xmlns:rdf="http://www.w3.org/1999/02/22-rdf-syntax-ns#"
   xmlns:svg="http://www.w3.org/2000/svg"
   xmlns="http://www.w3.org/2000/svg"
   xmlns:sodipodi="http://sodipodi.sourceforge.net/DTD/sodipodi-0.dtd"
   xmlns:inkscape="http://www.inkscape.org/namespaces/inkscape"
   version="1.1"
   x="0px"
   y="0px"
   viewBox="0 0 263 119"
   xml:space="preserve"
   id="svg88"
   sodipodi:docname="gocart_final.svg"
   width="263"
   height="119"
   inkscape:version="0.92.3 (2405546, 2018-03-11)"><metadata
   id="metadata94"><rdf:RDF><cc:Work
       rdf:about=""><dc:format>image/svg+xml</dc:format><dc:type
         rdf:resource="http://purl.org/dc/dcmitype/StillImage" /><dc:title></dc:title></cc:Work></rdf:RDF></metadata><defs
   id="defs92" /><sodipodi:namedview
   pagecolor="#ffffff"
   bordercolor="#666666"
   borderopacity="1"
   objecttolerance="10"
   gridtolerance="10"
   guidetolerance="10"
   inkscape:pageopacity="0"
   inkscape:pageshadow="2"
   inkscape:window-width="1916"
   inkscape:window-height="1041"
   id="namedview90"
   showgrid="false"
   inkscape:zoom="2.2250293"
   inkscape:cx="115.15697"
   inkscape:cy="163.98305"
   inkscape:window-x="0"
   inkscape:window-y="18"
   inkscape:window-maximized="0"
   inkscape:current-layer="svg88" />
<style
   type="text/css"
   id="style2">
	.st0{display:none;}
	.st1{display:inline;fill:none;stroke:#FFFFFF;stroke-width:1.2463;stroke-miterlimit:10;}
	.st2{display:inline;fill:#010101;}
	.st3{font-family:'Comfortaa-Bold';}
	.st4{font-size:57.9532px;}
	.st5{display:inline;fill:#FFFFFF;}
	.st6{font-family:'Comfortaa-Regular';}
	.st7{display:inline;}
	.st8{fill:none;}
	.st9{fill:#FFFFFF;}
	.st10{fill:none;stroke:#FFFFFF;stroke-width:1.4641;stroke-miterlimit:10;}
	.st11{fill:#010101;}
	.st12{fill:#7570B3;}
	.st13{fill:#D76127;}
	.st14{fill:#E5AC23;}
	.st15{fill:#E62A8A;}
	.st16{fill:#66A744;}
	.st17{fill:#199E77;}
	.st18{fill:#D76227;}
</style>
<g
   id="Layer_1"
   class="st0"
   style="display:none"
   transform="translate(0,-181)">
	<path
   class="st1"
   d="M 139.9,155.9"
   id="path4"
   inkscape:connector-curvature="0"
   style="display:inline;fill:none;stroke:#ffffff;stroke-width:1.24629998;stroke-miterlimit:10" />
	<path
   class="st1"
   d="M 217.6,170.1"
   id="path6"
   inkscape:connector-curvature="0"
   style="display:inline;fill:none;stroke:#ffffff;stroke-width:1.24629998;stroke-miterlimit:10" />
	<path
   class="st2"
   d="M 148.7,146.1"
   id="path8"
   inkscape:connector-curvature="0"
   style="display:inline;fill:#010101" />
	<path
   class="st2"
   d="M 155,72.5 260.5,92 c 0,0 -19.2,11.9 -4.3,29.7 12.3,15.1 -3.5,31.2 -17.1,34.2 l -81.4,17.2 c 0,0 -25.8,-27.3 -25.8,-48.6 0,-21.3 23.1,-52 23.1,-52 z"
   id="path10"
   inkscape:connector-curvature="0"
   style="display:inline;fill:#010101" />
	<text
   transform="translate(41.9379,139.5192)"
   class="st2 st3 st4"
   id="text12"
   style="font-size:57.95320129px;font-family:Comfortaa-Bold;display:inline;fill:#010101">go</text>

	<text
   transform="translate(131.9741,139.5182)"
   class="st5 st6 st4"
   id="text14"
   style="font-size:57.95320129px;font-family:Comfortaa-Regular;display:inline;fill:#ffffff">cart</text>

	<g
   class="st7"
   id="g24"
   style="display:inline">
		<path
   class="st8"
   d="m 195.9,150.8 c -5.5,-1.9 -10.7,-3.6 -17.4,-3.8 -0.4,0 -0.8,0 -1.3,0 -1.4,0 -2.8,0.1 -4.2,0.2 5.9,18.3 16.1,33.1 18.2,36 l 41.7,-13.6 c -1.2,-2.2 -4.4,-8 -7.8,-15.6 -13,2.3 -21.3,-0.5 -29.2,-3.2 z"
   id="path16"
   inkscape:connector-curvature="0"
   style="fill:none" />
		<path
   class="st8"
   d="m 178.5,145.2 c 7,0.1 12.5,2 17.9,3.9 7.6,2.6 15.6,5.3 28,3.2 -2.8,-6.4 -5.6,-13.8 -7.7,-21.4 -3.1,-11.3 0.6,-24.7 4.7,-34.8 -10.4,-1.2 -21.2,-1.2 -31.5,1.3 -6,1.5 -11.5,2.3 -16.6,2.8 -2.7,7.1 -4.5,15.1 -4.4,23.8 0.1,7.3 1.6,14.5 3.6,21.3 1.5,-0.1 3.1,-0.2 4.7,-0.2 0.5,0.1 0.9,0.1 1.3,0.1 z"
   id="path18"
   inkscape:connector-curvature="0"
   style="fill:none" />
		<path
   class="st8"
   d="m 222.3,98.8 c -3.3,8.7 -6.6,21.2 -3.8,31.5 2.1,7.7 5,15.2 7.8,21.6 19.2,-4 39.7,-22.5 42.1,-24.7 l 2.7,-16.6 c -3.8,-1.8 -24.3,-11.2 -47.8,-14.4 -0.3,0.9 -0.6,1.7 -1,2.6 z"
   id="path20"
   inkscape:connector-curvature="0"
   style="fill:none" />
		<path
   class="st9"
   d="m 272.6,109.3 c -0.3,-0.2 -22.5,-11.2 -48.5,-14.8 3.1,-7.3 6.2,-12.3 6.3,-12.4 l -1.6,-1 c -0.3,0.5 -3.5,5.7 -6.6,13.1 -10.7,-1.3 -22,-1.3 -32.7,1.3 -5.5,1.3 -10.7,2.2 -15.4,2.7 6.6,-16 17.4,-26.3 17.5,-26.5 l -1.3,-1.4 c -0.2,0.2 -11.5,11.1 -18.3,28 -25.4,2 -39.3,-6.9 -39.5,-7 l -1,1.6 c 0.7,0.5 14.4,9.2 39.8,7.5 -2.6,7.1 -4.3,15.1 -4.2,23.7 0.1,7.3 1.5,14.6 3.6,21.5 -27.8,3 -42.3,23.9 -42.5,24.1 l 1.5,1 c 0.2,-0.2 14.3,-20.6 41.5,-23.3 6.6,20.9 18.8,37.3 19,37.5 l 0.4,0.5 45.1,-14.7 -0.6,-1 c -0.1,-0.1 -3.8,-6.6 -8.1,-16.1 10.7,-2.3 21.5,-8.9 28.9,-14 8.2,-5.8 13.9,-11.2 14,-11.2 l 0.2,-0.2 3,-18.5 z M 168.9,124 c -0.2,-8.7 1.7,-16.8 4.4,-23.8 5.1,-0.5 10.6,-1.4 16.6,-2.8 10.2,-2.5 21.1,-2.6 31.5,-1.3 -4.1,10.1 -7.8,23.5 -4.7,34.8 2.1,7.6 4.9,15.1 7.7,21.4 -12.4,2.1 -20.3,-0.6 -28,-3.2 -5.4,-1.8 -11,-3.7 -17.9,-3.9 -0.4,0 -0.9,0 -1.3,0 -1.6,0 -3.2,0.1 -4.7,0.2 -2,-6.9 -3.4,-14.1 -3.6,-21.4 z m 22.4,59.2 c -2.1,-2.9 -12.3,-17.7 -18.2,-36 1.4,-0.1 2.8,-0.2 4.2,-0.2 0.4,0 0.8,0 1.3,0 6.7,0.1 11.9,1.9 17.4,3.8 8,2.7 16.2,5.5 29.3,3.2 3.4,7.6 6.5,13.4 7.8,15.6 z m 77.1,-56 c -2.4,2.2 -22.9,20.7 -42.1,24.7 -2.8,-6.4 -5.7,-13.9 -7.8,-21.6 -2.8,-10.3 0.5,-22.8 3.8,-31.5 0.3,-0.9 0.7,-1.7 1,-2.5 23.5,3.1 44,12.6 47.8,14.4 z"
   id="path22"
   inkscape:connector-curvature="0"
   style="fill:#ffffff" />
	</g>
	<path
   class="st2"
   d="M 272.2,134.9"
   id="path26"
   inkscape:connector-curvature="0"
   style="display:inline;fill:#010101" />
	<path
   class="st2"
   d="M 356.4,189.7"
   id="path28"
   inkscape:connector-curvature="0"
   style="display:inline;fill:#010101" />
	<g
   class="st7"
   id="g34"
   style="display:inline">
		<g
   id="g32">
			<path
   d="m 123.3,119.7 c -1.3,0 -2.6,0 -3.9,0 -1.6,0 -3.1,1.4 -3,3 0.1,1.6 1.3,3 3,3 1.3,0 2.6,0 3.9,0 1.6,0 3.1,-1.4 3,-3 0,-1.6 -1.3,-3 -3,-3 z"
   id="path30"
   inkscape:connector-curvature="0" />
		</g>
	</g>
</g>

<g
   id="g930"
   transform="translate(-24.6,-95.9)"><g
     id="Layer_4">
	<path
   id="path37"
   d="M 131.8,194.3"
   class="st10"
   inkscape:connector-curvature="0"
   style="fill:none;stroke:#ffffff;stroke-width:1.4641;stroke-miterlimit:10" />
	<path
   id="path39"
   d="M 223.1,211"
   class="st10"
   inkscape:connector-curvature="0"
   style="fill:none;stroke:#ffffff;stroke-width:1.4641;stroke-miterlimit:10" />
	<path
   id="path41"
   d="M 142.1,182.8"
   class="st11"
   inkscape:connector-curvature="0"
   style="fill:#010101" />
	<path
   id="path43"
   d="M 287.2,169.6"
   class="st11"
   inkscape:connector-curvature="0"
   style="fill:#010101" />
	<path
   id="path45"
   d="m 264.7,128.3 c 3.5,-5.8 8.7,-9.1 8.7,-9.1 l -39.3,-7.3 c -1,1.7 -2.2,3.9 -3.5,6.3 15.5,1.6 28,7 34.1,10.1 z"
   class="st12"
   inkscape:connector-curvature="0"
   style="fill:#7570b3" />
	<path
   id="path47"
   d="m 191.7,123.9 c 12.6,-5.5 25.2,-6.7 36.4,-5.8 1.3,-2.5 2.6,-4.7 3.6,-6.6 l -46.9,-8.7 c -1.8,3.1 -8.4,14.6 -13.7,26.9 6.3,-0.8 13.2,-2.6 20.6,-5.8 z"
   class="st13"
   inkscape:connector-curvature="0"
   style="fill:#d76127" />
	<path
   id="path49"
   d="m 168.3,130.1 c 5.1,-12.1 11.6,-23.6 14,-27.7 l -32.8,-6.1 c 0,0 -8.8,11.7 -16.3,26.4 6,3.4 18.4,8.7 35.1,7.4 z"
   class="st14"
   inkscape:connector-curvature="0"
   style="fill:#e5ac23" />
	<path
   id="path51"
   d="m 141.1,200.3 c 6.2,8.5 11.7,14.2 11.7,14.2 l 27.4,-5.8 c -3,-5.9 -7.8,-15.4 -11.7,-25.3 -13.8,2.4 -22.5,10.6 -27.4,16.9 z"
   class="st15"
   inkscape:connector-curvature="0"
   style="fill:#e62a8a" />
	<path
   id="path53"
   d="m 167.5,181.2 c -3.7,-9.5 -6.5,-19.1 -6.2,-26 0.2,-6.4 2.7,-14.6 6,-22.7 -1.5,0.1 -2.9,0.1 -4.3,0.1 -6.7,0 -12.5,-1 -17,-2.2 -6,-1.6 -10.7,-3.8 -13.8,-5.6 -5.3,10.6 -9.7,22.5 -9.7,32.6 0,13.6 9,29.4 17.2,40.9 5.2,-6.5 14.1,-14.6 27.8,-17.1 z"
   class="st13"
   inkscape:connector-curvature="0"
   style="fill:#d76127" />
	<path
   id="path55"
   d="m 225.3,190.2 c -8.7,0.7 -14.8,-1.1 -21.6,-3 -7.1,-2.1 -15.1,-4.4 -27.9,-4.3 -1.7,0 -3.3,0.1 -4.9,0.3 4,9.9 8.8,19.5 11.7,25.1 l 45.9,-9.7 c 0,-0.1 -0.1,-0.2 -0.1,-0.3 -1,-2.4 -2.1,-5.2 -3.1,-8.1 z"
   class="st16"
   inkscape:connector-curvature="0"
   style="fill:#66a744" />
	<path
   id="path57"
   d="m 175.7,180.5 c 0.2,0 0.5,0 0.7,0 12.8,0 20.8,2.3 27.9,4.4 6.4,1.8 12.1,3.5 20.2,3 -3.2,-9.2 -6.5,-20.5 -7.4,-32.4 -0.8,-11 4.7,-24.8 9.8,-35.1 -10.6,-0.7 -22.4,0.5 -34.3,5.7 -8.2,3.6 -15.8,5.4 -22.7,6.2 -3.5,8.3 -6.2,16.8 -6.4,23.1 -0.2,6.6 2.6,16.1 6.3,25.5 1.9,-0.3 3.9,-0.4 5.9,-0.4 z"
   class="st14"
   inkscape:connector-curvature="0"
   style="fill:#e5ac23" />
	<path
   id="path59"
   d="m 235.3,188.5 c -2.8,0.7 -5.3,1.1 -7.6,1.4 1,2.7 2,5.3 2.8,7.5 0.1,0.2 0.2,0.4 0.2,0.6 l 17.6,-3.7 c 12.6,-2.7 26.7,-15 25.1,-28.8 -5.6,6.1 -18.9,18.3 -38.1,23 z"
   class="st17"
   inkscape:connector-curvature="0"
   style="fill:#199e77" />
	<path
   id="path61"
   d="m 226.8,187.6 c 2.4,-0.3 5,-0.7 7.9,-1.4 20.2,-4.9 33.7,-18.4 38.3,-23.5 -0.8,-2.8 -2.2,-5.7 -4.5,-8.5 -8.1,-9.6 -7.6,-17.8 -4.8,-23.8 -6.1,-3.1 -18.7,-8.5 -34.1,-9.9 -5.2,10.1 -10.9,24.1 -10.1,34.7 0.8,12 4.1,23.2 7.3,32.4 z"
   class="st13"
   inkscape:connector-curvature="0"
   style="fill:#d76127" />
</g><g
     id="Layer_2">
	<g
   id="g68">
		<path
   id="path64"
   d="m 53,170.6 c -3.1,2.5 -6.7,3.8 -10.8,3.8 -4.8,0 -8.8,-1.7 -12.2,-5 -3.4,-3.4 -5,-7.4 -5,-12.2 0,-4.8 1.7,-8.8 5,-12.2 3.4,-3.4 7.4,-5 12.2,-5 4.7,0 8.8,1.7 12.2,5 3.4,3.4 5,7.4 5,12.2 0,0 0,16.7 0,22.8 0,6.1 -0.2,7 -0.7,8.3 -0.5,1.3 -1.1,2.5 -1.9,3.6 -0.8,1.1 -1.7,2.1 -2.8,3 -1.1,0.9 -2.3,1.6 -3.5,2.2 -1.3,0.6 -2.6,1.1 -4,1.4 -1.4,0.3 -2.8,0.5 -4.1,0.5 -1.6,0 -3.3,-0.2 -4.8,-0.6 -1.6,-0.4 -3.1,-1 -4.5,-1.9 -1.4,-0.8 -2.7,-1.8 -3.9,-3 -1.2,-1.2 -2.2,-2.6 -3,-4.1 -0.3,-0.5 -0.5,-1 -0.5,-1.7 0,-0.9 0.3,-1.7 0.9,-2.3 0.6,-0.6 1.4,-0.9 2.3,-0.9 0.6,0 1.1,0.1 1.5,0.4 0.4,0.3 0.9,0.9 1.6,1.9 0.7,1 1.3,1.7 1.8,2.2 2.3,2.3 5.2,3.5 8.5,3.5 3.3,0 6.1,-1.1 8.4,-3.4 1.4,-1.7 2.1,-2.6 2.1,-5 C 53,181.6 53,170.6 53,170.6 Z M 42.2,146.4 c -1.5,0 -2.9,0.3 -4.2,0.9 -1.3,0.6 -2.5,1.3 -3.4,2.3 -1,1 -1.7,2.1 -2.3,3.4 -0.6,1.3 -0.8,2.7 -0.8,4.2 0,1.5 0.3,2.9 0.8,4.2 0.6,1.3 1.3,2.5 2.3,3.4 1,1 2.1,1.7 3.4,2.3 1.3,0.6 2.7,0.9 4.2,0.9 1.5,0 2.9,-0.3 4.2,-0.9 1.3,-0.6 2.5,-1.4 3.4,-2.3 1,-1 1.7,-2.1 2.3,-3.4 0.6,-1.3 0.8,-2.7 0.8,-4.2 0,-1.5 -0.3,-2.9 -0.8,-4.2 -0.6,-1.3 -1.3,-2.4 -2.3,-3.4 -1,-1 -2.1,-1.8 -3.4,-2.3 -1.3,-0.6 -2.7,-0.9 -4.2,-0.9 z"
   class="st13"
   inkscape:connector-curvature="0"
   style="fill:#d76127" />
		<path
   id="path66"
   d="m 98.9,157.2 c 0,4.8 -1.7,8.9 -5,12.2 -3.4,3.4 -7.5,5 -12.2,5 -4.8,0 -8.8,-1.7 -12.2,-5 -3.4,-3.4 -5,-7.4 -5,-12.2 0,-4.8 1.7,-8.8 5,-12.2 3.4,-3.4 7.4,-5 12.2,-5 4.7,0 8.8,1.7 12.2,5 1.7,1.7 2.9,3.5 3.8,5.6 0.7,2 1.2,4.2 1.2,6.6 z M 81.6,146.4 c -1.5,0 -2.9,0.3 -4.2,0.9 -1.3,0.6 -2.5,1.3 -3.4,2.3 -1,1 -1.7,2.1 -2.3,3.4 -0.6,1.3 -0.8,2.7 -0.8,4.2 0,1.5 0.3,2.9 0.8,4.2 0.6,1.3 1.3,2.5 2.3,3.4 1,1 2.1,1.7 3.4,2.3 1.3,0.6 2.7,0.9 4.2,0.9 1.5,0 2.9,-0.3 4.2,-0.9 1.3,-0.6 2.5,-1.4 3.4,-2.3 1,-1 1.7,-2.1 2.3,-3.4 0.6,-1.3 0.8,-2.7 0.8,-4.2 0,-1.5 -0.3,-2.9 -0.8,-4.2 -0.6,-1.3 -1.3,-2.4 -2.3,-3.4 -1,-1 -2.1,-1.8 -3.4,-2.3 -1.3,-0.6 -2.7,-0.9 -4.2,-0.9 z"
   class="st13"
   inkscape:connector-curvature="0"
   style="fill:#d76127" />
	</g>
	<g
   id="g78">
		<path
   id="path70"
   d="m 154,165.9 c 0.7,0 1.4,0.3 1.9,0.8 0.5,0.5 0.8,1.1 0.8,1.9 0,0.8 -0.3,1.4 -0.8,2 -3.4,3 -7.5,4.5 -12.1,4.5 -5.1,0 -9.5,-1.8 -13.2,-5.5 -3.6,-3.6 -5.5,-8 -5.5,-13.2 0,-5.2 1.8,-9.5 5.5,-13.2 3.6,-3.6 8,-5.5 13.2,-5.5 4.7,0 8.7,1.5 12.1,4.5 0.6,0.6 0.9,1.2 0.9,2.1 0,0.7 -0.3,1.4 -0.8,1.9 -0.5,0.5 -1.1,0.8 -1.9,0.8 -0.6,0 -1.2,-0.2 -1.7,-0.6 -2.5,-2.2 -5.4,-3.3 -8.7,-3.3 -3.7,0 -6.8,1.3 -9.4,3.9 -2.6,2.6 -3.9,5.7 -3.9,9.4 0,3.7 1.3,6.8 3.9,9.4 2.6,2.6 5.7,3.9 9.4,3.9 3.3,0 6.2,-1.1 8.7,-3.3 0.5,-0.3 1,-0.5 1.6,-0.5 z"
   class="st9"
   inkscape:connector-curvature="0"
   style="fill:#ffffff" />
		<path
   id="path72"
   d="m 194.3,169.5 c -3.7,3.7 -8.2,5.6 -13.3,5.6 -5.1,0 -9.5,-1.8 -13.2,-5.5 -3.6,-3.6 -5.5,-8 -5.5,-13.2 0,-5.2 1.8,-9.5 5.5,-13.2 3.6,-3.6 8,-5.5 13.2,-5.5 5.2,0 9.5,1.8 13.2,5.5 3.6,3.6 5.5,8 5.5,13.2 v 16 c 0,0.7 -0.3,1.4 -0.8,1.9 -0.5,0.5 -1.1,0.8 -1.9,0.8 -0.8,0 -1.4,-0.3 -1.9,-0.8 -0.5,-0.5 -0.8,-1.1 -0.8,-1.9 z M 181,143.1 c -3.7,0 -6.8,1.3 -9.4,3.9 -2.6,2.6 -3.9,5.7 -3.9,9.4 0,3.7 1.3,6.8 3.9,9.4 2.6,2.6 5.7,3.9 9.4,3.9 3.7,0 6.8,-1.3 9.4,-3.9 2.6,-2.6 3.9,-5.7 3.9,-9.4 0,-3.7 -1.3,-6.8 -3.9,-9.4 -2.6,-2.6 -5.8,-3.9 -9.4,-3.9 z"
   class="st9"
   inkscape:connector-curvature="0"
   style="fill:#ffffff" />
		<path
   id="path74"
   d="m 204.9,140.5 c 0,-0.7 0.3,-1.4 0.8,-1.9 0.5,-0.5 1.1,-0.8 1.9,-0.8 0.8,0 1.4,0.3 1.9,0.8 0.5,0.5 0.8,1.1 0.8,1.9 v 2.9 c 3.7,-3.7 8.2,-5.6 13.3,-5.6 2.6,0 5,0.4 7.1,1.3 0.4,0.2 0.8,0.4 1.1,0.7 0.5,0.5 0.8,1.2 0.8,1.9 0,0.7 -0.3,1.4 -0.8,1.9 -0.5,0.5 -1.1,0.8 -1.9,0.8 -0.4,0 -0.8,-0.1 -1.2,-0.3 -1.6,-0.7 -3.3,-1 -5.2,-1 -3.7,0 -6.8,1.3 -9.4,3.9 -2.6,2.6 -3.9,5.7 -3.9,9.4 v 16 c 0,0.7 -0.3,1.4 -0.8,1.9 -0.5,0.5 -1.1,0.8 -1.9,0.8 -0.8,0 -1.4,-0.3 -1.9,-0.8 -0.5,-0.5 -0.8,-1.1 -0.8,-1.9 v -31.9 z"
   class="st9"
   inkscape:connector-curvature="0"
   style="fill:#ffffff" />
		<path
   id="path76"
   d="m 255.4,169.7 c 0.7,0 1.4,0.3 1.9,0.8 0.5,0.5 0.8,1.1 0.8,1.9 0,0.7 -0.3,1.4 -0.8,1.9 -0.5,0.5 -1.1,0.8 -1.9,0.8 -8.9,0 -13.3,-4.4 -13.3,-13.3 v -18.6 h -2.7 c -0.7,0 -1.4,-0.3 -1.9,-0.8 -0.5,-0.5 -0.8,-1.1 -0.8,-1.9 0,-0.7 0.3,-1.4 0.8,-1.9 0.5,-0.5 1.1,-0.8 1.9,-0.8 h 2.7 v -13.3 c 0,-0.7 0.3,-1.4 0.8,-1.9 0.5,-0.5 1.1,-0.8 1.9,-0.8 0.8,0 1.4,0.3 1.9,0.8 0.5,0.5 0.8,1.1 0.8,1.9 v 13.3 h 5.4 c 0.7,0 1.4,0.3 1.9,0.8 0.5,0.5 0.8,1.1 0.8,1.9 0,0.7 -0.3,1.4 -0.8,1.9 -0.5,0.5 -1.1,0.8 -1.9,0.8 h -5.4 v 18.6 c 0,5.3 2.6,7.9 7.9,7.9 z"
   class="st9"
   inkscape:connector-curvature="0"
   style="fill:#ffffff" />
	</g>
	<g
   id="g84">
		<g
   id="g82">
			<path
   id="path80"
   d="m 112.2,150.4 c -0.8,0 -1.5,0 -2.3,0 -1.5,0 -3.1,0.7 -4.2,1.7 -1,1 -1.8,2.7 -1.7,4.2 0.1,1.5 0.6,3.1 1.7,4.2 1.1,1.1 2.6,1.7 4.2,1.7 0.8,0 1.5,0 2.3,0 1.5,0 3.1,-0.7 4.2,-1.7 1,-1 1.8,-2.7 1.7,-4.2 -0.1,-1.5 -0.6,-3.1 -1.7,-4.2 -1.2,-1 -2.6,-1.7 -4.2,-1.7 z"
   class="st18"
   inkscape:connector-curvature="0"
   style="fill:#d76227" />
		</g>
	</g>
</g></g>
<g
   id="Layer_3"
   transform="translate(0,-181)">
</g>
</svg>